<svg width="21" height="25" viewBox="0 0 21 25" fill="none" xmlns="http://www.w3.org/2000/svg">
<g id="Apple_logo_black 1" clip-path="url(#clip0_1113_1545)">
<path id="Vector" d="M19.7025 8.5225C19.5575 8.635 16.9975 10.0775 16.9975 13.285C16.9975 16.995 20.255 18.3075 20.3525 18.34C20.3375 18.42 19.835 20.1375 18.635 21.8875C17.565 23.4275 16.4475 24.965 14.7475 24.965C13.0475 24.965 12.61 23.9775 10.6475 23.9775C8.735 23.9775 8.055 24.9975 6.5 24.9975C4.945 24.9975 3.86 23.5725 2.6125 21.8225C1.1675 19.7675 0 16.575 0 13.545C0 8.685 3.16 6.1075 6.27 6.1075C7.9225 6.1075 9.3 7.1925 10.3375 7.1925C11.325 7.1925 12.865 6.0425 14.745 6.0425C15.4575 6.0425 18.0175 6.1075 19.7025 8.5225ZM13.8525 3.985C14.63 3.0625 15.18 1.7825 15.18 0.5025C15.18 0.325 15.165 0.145 15.1325 0C13.8675 0.0475 12.3625 0.8425 11.455 1.895C10.7425 2.705 10.0775 3.985 10.0775 5.2825C10.0775 5.4775 10.11 5.6725 10.125 5.735C10.205 5.75 10.335 5.7675 10.465 5.7675C11.6 5.7675 13.0275 5.0075 13.8525 3.985Z" fill="#C1C1C1"/>
</g>
<defs>
<clipPath id="clip0_1113_1545">
<rect width="20.35" height="25" fill="white"/>
</clipPath>
</defs>
</svg>
