<svg width="32" height="32" viewBox="0 0 32 32" fill="none" xmlns="http://www.w3.org/2000/svg">
<g id="book">
<path id="Vector" d="M6.66669 27C6.66669 27.552 7.11469 28 7.66669 28H21.8694C23.42 28 24 27.5133 24 25.8667V23.94M6.66669 27C6.66669 26.2044 6.98276 25.4413 7.54537 24.8787C8.10798 24.3161 8.87104 24 9.66669 24H23.2027C23.504 24 23.7698 23.98 24 23.94M6.66669 27V8.26667C6.66669 6.752 6.57069 5.08133 8.12269 4.29067C8.69336 4 9.44002 4 10.9334 4H23.2C24.848 4 25.3334 4.58267 25.3334 6.13333V21.8667C25.3334 23.1933 24.9574 23.7667 24 23.94" stroke="#6D6D6D" stroke-width="2" stroke-linecap="round" stroke-linejoin="round"/>
</g>
</svg>
