<svg width="24" height="24" viewBox="0 0 24 24" fill="none" xmlns="http://www.w3.org/2000/svg">
<g id="class" clip-path="url(#clip0_702_1840)">
<path id="Vector" d="M18.4234 6.3989L18.4234 6.39912C18.6071 6.41116 18.7793 6.49272 18.905 6.62721C19.0306 6.76164 19.1003 6.93887 19.1 7.12288C19.1 7.12295 19.1 7.12302 19.1 7.12309M18.4234 6.3989L18.4168 21.6608C18.5715 21.6608 18.7198 21.5994 18.8292 21.49C18.9386 21.3807 19 21.2323 19 21.0777V7.12288L19.1 7.12309M18.4234 6.3989H18.4168H7.25607C7.12099 6.3969 6.98771 6.3676 6.86423 6.31277C6.74055 6.25784 6.62927 6.17844 6.53711 6.07934C6.44495 5.98024 6.37382 5.86351 6.328 5.73617C6.28218 5.60883 6.26262 5.47353 6.27051 5.33843L6.2707 5.33844L6.27068 5.33236C6.27002 5.06203 6.37206 4.80153 6.55616 4.60358C6.73948 4.40646 6.99054 4.286 7.25892 4.2663M18.4234 6.3989L7.25892 4.2663M19.1 7.12309L19.1 21.0777C19.1 21.2589 19.028 21.4326 18.8999 21.5607C18.7718 21.6889 18.598 21.7608 18.4168 21.7608H7.25534H7.25184L7.25184 21.7608C6.62155 21.7387 6.02446 21.4727 5.58651 21.0189C5.14857 20.565 4.904 19.9589 4.90438 19.3282V5.76409C4.89888 5.71476 4.89876 5.66499 4.90404 5.61565C4.89854 5.52037 4.89865 5.42484 4.90438 5.32957C4.90479 4.7 5.14928 4.09506 5.58651 3.64197C6.02446 3.18814 6.62155 2.92214 7.25184 2.90006L7.25534 2.89994V2.9H18.4168C18.598 2.9 18.7718 2.97197 18.8999 3.10009C19.028 3.22821 19.1 3.40197 19.1 3.58315C19.1 3.76433 19.028 3.9381 18.8999 4.06621C18.7718 4.19433 18.598 4.2663 18.4168 4.2663H7.25892M19.1 7.12309L7.25892 4.2663M6.27068 19.3285V19.3282V7.56506C6.57903 7.70617 6.91637 7.77498 7.2568 7.76521H17.7337V20.3945H7.25891C6.99053 20.3748 6.73948 20.2544 6.55616 20.0572C6.37206 19.8593 6.27002 19.5988 6.27068 19.3285Z" fill="#1E1E1E" stroke="black" stroke-width="0.2"/>
</g>
<defs>
<clipPath id="clip0_702_1840">
<rect width="24" height="24" fill="white"/>
</clipPath>
</defs>
</svg>
