<svg width="24" height="24" viewBox="0 0 24 24" fill="none" xmlns="http://www.w3.org/2000/svg">
<g id="proicons:file">
<path id="Vector" d="M11.7571 5.23687C12.0547 5.36839 12.3255 5.5509 12.5566 5.77568L17.2021 10.2935C17.4357 10.5205 17.6225 10.7831 17.7556 11.0699M11.7571 5.23687C11.4031 5.08063 11.0188 4.99986 10.63 5H8.72444C8.00188 5 7.3089 5.27905 6.79797 5.77577C6.28704 6.27249 6 6.94618 6 7.64865V16.3514C6 17.0538 6.28704 17.7275 6.79797 18.2242C7.3089 18.7209 8.00188 19 8.72444 19H15.2756C15.9981 19 16.6911 18.7209 17.202 18.2242C17.713 17.7275 18 17.0538 18 16.3514V12.1665C18 11.7843 17.9152 11.4112 17.7556 11.0699M11.7571 5.23687V9.55568C11.7571 9.95708 11.9212 10.3421 12.2131 10.6259C12.5051 10.9097 12.9011 11.0692 13.314 11.0692L17.7556 11.0699" stroke="#0066FF" stroke-width="1.8" stroke-linecap="round" stroke-linejoin="round"/>
</g>
</svg>
