<svg width="24" height="24" viewBox="0 0 24 24" fill="none" xmlns="http://www.w3.org/2000/svg">
<g id="meteor-icons:link">
<path id="Vector" d="M9.99038 12.6699C10.2465 13.1292 10.6072 13.5217 11.0432 13.8157C11.4793 14.1097 11.9784 14.2969 12.5002 14.3621C13.022 14.4273 13.5519 14.3688 14.0469 14.1912C14.5419 14.0135 14.9881 13.7219 15.3494 13.3397L18.0289 10.6603C18.6507 10.0384 19 9.19508 19 8.3157C19 7.43632 18.6507 6.59296 18.0289 5.97115C17.407 5.34933 16.5637 5 15.6843 5C14.8049 5 13.9616 5.34933 13.3397 5.97115L12 7.31089M14.0096 11.3301C13.7535 10.8708 13.3928 10.4783 12.9568 10.1843C12.5207 9.89032 12.0216 9.70313 11.4998 9.6379C10.978 9.57267 10.4481 9.63124 9.95313 9.80885C9.45815 9.98646 9.01194 10.2781 8.65064 10.6603L5.97115 13.3397C5.34933 13.9616 5 14.8049 5 15.6843C5 16.5637 5.34933 17.407 5.97115 18.0289C6.59296 18.6507 7.43632 19 8.3157 19C9.19508 19 10.0384 18.6507 10.6603 18.0289L12 16.6891" stroke="#0066FF" stroke-width="1.8" stroke-linecap="round" stroke-linejoin="round"/>
</g>
</svg>
