<svg width="24" height="24" viewBox="0 0 24 24" xmlns="http://www.w3.org/2000/svg">
<g id="uiw:right">
<path id="Vector" fill-rule="evenodd" clip-rule="evenodd" d="M8.46361 2.58955L17.1552 11.2967C17.2334 11.3715 17.2955 11.4615 17.3376 11.5612C17.3797 11.6609 17.401 11.7681 17.4 11.8764C17.4005 11.987 17.3791 12.0966 17.3371 12.199C17.2951 12.3013 17.2333 12.3944 17.1552 12.4728C14.0112 15.54 10.9812 18.5004 8.06521 21.354C7.91521 21.4944 7.31521 21.8436 6.85201 21.3252C6.38881 20.8056 6.66961 20.3532 6.85201 20.166L15.3336 11.8764L7.23721 3.76555C6.94201 3.35835 6.96601 2.98275 7.30921 2.63875C7.65321 2.29475 8.03801 2.27755 8.46361 2.58955Z" fill="currentColor" class="fill-current"/>
</g>
</svg>
