<svg width="24" height="24" viewBox="0 0 24 24" fill="none" xmlns="http://www.w3.org/2000/svg">
<g id="task">
<g id="Group">
<path id="Vector" d="M13.1065 18.2603C13.1065 18.2603 13.8432 18.2603 14.5799 19.7337C14.5799 19.7337 16.9203 16.0503 19 15.3136M8.31804 15.3136H11.2648M8.31804 11.6301H14.2115M7.94969 6.10498C6.80341 6.1396 6.1205 6.26705 5.64755 6.74C5 7.38829 5 8.4307 5 10.5163V15.3091C5 17.3954 5 18.4379 5.64755 19.0861C6.29436 19.7337 7.33677 19.7337 9.42012 19.7337H11.2618M14.574 6.10498C15.7203 6.1396 16.4039 6.26705 16.8761 6.74C17.5244 7.38829 17.5244 8.4307 17.5244 10.5163V13.4719" stroke="#0066FF" stroke-width="1.8" stroke-linecap="round" stroke-linejoin="round"/>
<path id="Vector_2" d="M7.94678 6.2892C7.94678 5.57756 8.52434 5 9.23598 5H13.2878C13.6297 5 13.9576 5.13583 14.1994 5.3776C14.4411 5.61937 14.577 5.94728 14.577 6.2892C14.577 6.63112 14.4411 6.95903 14.1994 7.20081C13.9576 7.44258 13.6297 7.5784 13.2878 7.5784H9.23598C8.89406 7.5784 8.56615 7.44258 8.32438 7.20081C8.0826 6.95903 7.94678 6.63112 7.94678 6.2892Z" stroke="#0066FF" stroke-width="1.8" stroke-linecap="round" stroke-linejoin="round"/>
</g>
</g>
</svg>
