<svg width="33" height="34" viewBox="0 0 33 34" fill="none" xmlns="http://www.w3.org/2000/svg">
<path d="M11.2809 11.7632L17.3427 8.25517C17.9788 7.88099 18.5401 7.83421 19.0266 8.11485C19.5317 8.39549 19.7843 8.91 19.7843 9.65837V27.6192L17.3427 29.0224V23.4097L11.2809 26.9176V32.5304L8.83938 33.9336V15.9727C8.83938 15.4676 8.95164 14.9437 9.17615 14.4012C9.40066 13.8399 9.70001 13.3254 10.0742 12.8576C10.4484 12.3712 10.8506 12.0064 11.2809 11.7632ZM17.3427 20.6033V11.0616L11.2809 14.5695V24.1113L17.3427 20.6033ZM17.3427 23.4097V29.0224L14.9012 27.6192V22.0065L17.3427 23.4097ZM17.3427 11.0616V20.6033L14.9012 19.2001V9.65837L17.3427 11.0616ZM17.3427 20.6033L11.2809 24.1113L8.83938 22.7081L14.9012 19.2001L17.3427 20.6033ZM19.0546 8.11485C18.5495 7.83421 17.9788 7.88099 17.3427 8.25517L11.2809 11.7632C10.8506 12.0064 10.4484 12.3712 10.0742 12.8576C9.70001 13.3254 9.40066 13.8399 9.17615 14.4012C8.95164 14.9437 8.83938 15.4676 8.83938 15.9727V33.9336L6.39783 32.5304V14.5695C6.39783 14.0644 6.51008 13.5405 6.73459 12.998C6.9591 12.4367 7.25845 11.9222 7.63264 11.4545C8.00682 10.968 8.40907 10.6032 8.83938 10.36L14.9012 6.85198C15.556 6.47779 16.1266 6.43102 16.6131 6.71166L19.0546 8.11485Z" fill="#0066FF"/>
<path d="M32.693 4.72902V17.3689L31.1401 18.2717V5.63186L32.693 4.72902ZM31.9166 21.6122C31.5915 21.7928 31.3267 21.8229 31.1221 21.7025C30.9174 21.5821 30.8151 21.3414 30.8151 20.9802C30.8151 20.6191 30.9174 20.258 31.1221 19.8968C31.3267 19.5357 31.5915 19.2648 31.9166 19.0843C32.2296 18.9037 32.4884 18.8736 32.693 18.994C32.8977 19.1144 33 19.3551 33 19.7162C33 20.0774 32.8977 20.4385 32.693 20.7997C32.4884 21.1608 32.2296 21.4317 31.9166 21.6122ZM32.693 4.72902L31.1401 5.63186L29.5692 4.72902L31.1401 3.82617L32.693 4.72902ZM32.693 18.994C32.4884 18.8736 32.2296 18.9037 31.9166 19.0843C31.5915 19.2648 31.3267 19.5357 31.1221 19.8968C30.9174 20.258 30.8151 20.6191 30.8151 20.9802C30.8151 21.3414 30.9174 21.5821 31.1221 21.7025L29.5692 20.7997C29.3645 20.6793 29.2622 20.4385 29.2622 20.0774C29.2622 19.7162 29.3645 19.3551 29.5692 18.994C29.7738 18.6328 30.0326 18.362 30.3456 18.1814C30.6706 18.0008 30.9355 17.9707 31.1401 18.0911L32.693 18.994ZM31.1401 5.63186V18.2717L29.5692 17.3689V4.72902L31.1401 5.63186Z" fill="#0066FF"/>
<path d="M22.3953 5.47863L23.8008 4.60938L25.2064 5.47863V24.4283L23.8008 25.4714L22.3953 24.4283V5.47863ZM24.547 12.7023L28.2952 10.7675V13.4485L24.547 15.3833V12.7023Z" fill="#0066FF"/>
<path d="M1.19806 8.43709C1.82783 8.61061 4.02781 9.50647 5.17817 10.1131" stroke="#0066FF" stroke-width="2" stroke-linecap="round"/>
<path d="M7.0777 8.12689C6.74341 7.77853 5.28511 5.33743 4.59775 4.16042" stroke="#0066FF" stroke-width="2" stroke-linecap="round"/>
<path d="M9.38568 6.06137L9.07805 1.92094" stroke="#0066FF" stroke-width="2" stroke-linecap="round"/>
</svg>
