<svg width="16" height="16" viewBox="0 0 16 16" fill="none" xmlns="http://www.w3.org/2000/svg">
<g id="pajamas:list-task" clip-path="url(#clip0_298_408)">
<path id="Vector" fill-rule="evenodd" clip-rule="evenodd" d="M4.78003 3.27985C4.91251 3.13767 4.98463 2.94963 4.9812 2.75532C4.97778 2.56102 4.89906 2.37564 4.76165 2.23822C4.62424 2.10081 4.43885 2.0221 4.24455 2.01867C4.05025 2.01524 3.8622 2.08737 3.72003 2.21985L1.75003 4.18985L1.28003 3.71985C1.13785 3.58737 0.949808 3.51524 0.755507 3.51867C0.561206 3.5221 0.375821 3.60081 0.238408 3.73822C0.100995 3.87564 0.0222829 4.06102 0.0188546 4.25532C0.0154264 4.44963 0.0875496 4.63767 0.22003 4.77985L1.22003 5.77985C1.36066 5.9203 1.55128 5.99919 1.75003 5.99919C1.94878 5.99919 2.1394 5.9203 2.28003 5.77985L4.78003 3.27985ZM6.00003 3.74985C6.00003 3.55093 6.07905 3.36017 6.2197 3.21952C6.36035 3.07886 6.55112 2.99985 6.75003 2.99985H15.25C15.4489 2.99985 15.6397 3.07886 15.7804 3.21952C15.921 3.36017 16 3.55093 16 3.74985C16 3.94876 15.921 4.13952 15.7804 4.28018C15.6397 4.42083 15.4489 4.49985 15.25 4.49985H6.75003C6.55112 4.49985 6.36035 4.42083 6.2197 4.28018C6.07905 4.13952 6.00003 3.94876 6.00003 3.74985ZM6.00003 7.99985C6.00003 7.80093 6.07905 7.61017 6.2197 7.46952C6.36035 7.32886 6.55112 7.24985 6.75003 7.24985H15.25C15.4489 7.24985 15.6397 7.32886 15.7804 7.46952C15.921 7.61017 16 7.80093 16 7.99985C16 8.19876 15.921 8.38952 15.7804 8.53018C15.6397 8.67083 15.4489 8.74985 15.25 8.74985H6.75003C6.55112 8.74985 6.36035 8.67083 6.2197 8.53018C6.07905 8.38952 6.00003 8.19876 6.00003 7.99985ZM6.75003 11.4998C6.55112 11.4998 6.36035 11.5789 6.2197 11.7195C6.07905 11.8602 6.00003 12.0509 6.00003 12.2498C6.00003 12.4488 6.07905 12.6395 6.2197 12.7802C6.36035 12.9208 6.55112 12.9998 6.75003 12.9998H15.25C15.4489 12.9998 15.6397 12.9208 15.7804 12.7802C15.921 12.6395 16 12.4488 16 12.2498C16 12.0509 15.921 11.8602 15.7804 11.7195C15.6397 11.5789 15.4489 11.4998 15.25 11.4998H6.75003Z" fill="#1E1E1E"/>
</g>
<defs>
<clipPath id="clip0_298_408">
<rect width="16" height="16" fill="white"/>
</clipPath>
</defs>
</svg>
