<svg width="18" height="16" viewBox="0 0 18 16" fill="none" xmlns="http://www.w3.org/2000/svg">
<g id="task">
<g id="Group">
<path id="Vector" d="M10.165 13.333C10.165 13.333 10.864 13.333 11.5631 14.6663C11.5631 14.6663 13.7839 11.333 15.7573 10.6663M5.62133 10.6663H8.41744M5.62133 7.33301H11.2136M5.27181 2.33301C4.18412 2.36434 3.53612 2.47967 3.08735 2.90767C2.4729 3.49434 2.4729 4.43767 2.4729 6.32501V10.6623C2.4729 12.5503 2.4729 13.4937 3.08735 14.0803C3.70109 14.6663 4.69022 14.6663 6.66708 14.6663H8.41465M11.5575 2.33301C12.6452 2.36434 13.2939 2.47967 13.7419 2.90767C14.3571 3.49434 14.3571 4.43767 14.3571 6.32501V8.99967" stroke="#3C3C3C" stroke-width="1.5" stroke-linecap="round" stroke-linejoin="round"/>
<path id="Vector_2" d="M5.26901 2.49967C5.26901 1.85567 5.81705 1.33301 6.49231 1.33301H10.337C10.6614 1.33301 10.9726 1.45592 11.202 1.67472C11.4314 1.89351 11.5603 2.19026 11.5603 2.49967C11.5603 2.80909 11.4314 3.10584 11.202 3.32463C10.9726 3.54342 10.6614 3.66634 10.337 3.66634H6.49231C6.16787 3.66634 5.85672 3.54342 5.62731 3.32463C5.3979 3.10584 5.26901 2.80909 5.26901 2.49967Z" stroke="#3C3C3C" stroke-width="1.5" stroke-linecap="round" stroke-linejoin="round"/>
</g>
</g>
</svg>
