<svg width="18" height="15" viewBox="0 0 18 15" fill="none" xmlns="http://www.w3.org/2000/svg">
<path id="&#226;&#128;&#156;" d="M3.92 14.68C1.36 14.68 0 12.72 0 9.24C0 5.16 2 2.08 6.04 0L7.4 2.64C4.76 4 3.48 5.72 3.48 8.4L3.76 12.08L1.6 9.2C2.28 8.68 3.04 8.28 3.92 8.28C5.64 8.28 7.08 9.44 7.08 11.32C7.08 13.4 5.76 14.68 3.92 14.68ZM13.88 14.68C11.36 14.68 10 12.72 10 9.24C10 5.16 12 2.08 16.04 0L17.36 2.64C14.76 4 13.48 5.72 13.48 8.4L13.72 12.08L11.6 9.2C12.28 8.68 13.04 8.28 13.88 8.28C15.6 8.28 17.08 9.44 17.08 11.32C17.08 13.4 15.76 14.68 13.88 14.68Z" fill="#0066FF"/>
</svg>
