<svg width="40" height="40" viewBox="0 0 40 40" fill="none" xmlns="http://www.w3.org/2000/svg">
<g id="twemoji:raised-hand">
<path id="Vector" d="M22.7778 3.29438C22.0411 3.29438 21.3346 3.58704 20.8136 4.10797C20.2927 4.62891 20.0001 5.33544 20.0001 6.07216V6.07771L17.2223 0.516602C16.4856 0.516602 15.779 0.809259 15.2581 1.33019C14.7372 1.85113 14.4445 2.55767 14.4445 3.29438V4.72216L11.6667 3.0166C10.93 3.0166 10.2235 3.30926 9.70254 3.83019C9.1816 4.35113 8.88894 5.05767 8.88894 5.79438V9.72216L7.77783 19.9999H22.8245L22.7778 3.29438Z" fill="#EF9645"/>
<path id="Vector_2" d="M34.861 18.0211C33.3266 17.3422 31.1343 18.2522 29.5832 20.4522C28.5643 21.8967 28.2643 23.9533 26.9266 24.1678C26.4154 24.2489 25.5554 23.82 25.5554 22.6156V5C25.5554 5 25.5554 2.77778 23.3332 2.77778C21.111 2.77778 21.111 5 21.111 5V17.9256C21.111 17.8933 19.9999 17.8544 19.9999 17.8344V2.22222C19.9999 2.22222 19.9999 0 17.7777 0C15.5554 0 15.5554 2.22222 15.5554 2.22222V17.8367C15.5554 17.8556 14.4443 17.8822 14.4443 17.9133V4.72222C14.4443 4.72222 14.4443 2.5 12.2221 2.5C9.99989 2.5 9.99989 4.72222 9.99989 4.72222V18.7644C9.99989 18.8956 8.88878 19.0433 8.88878 19.2067V9.72222C8.88878 9.72222 8.88878 7.5 6.66656 7.5C4.44434 7.5 4.44434 9.72222 4.44434 9.72222V26.6667C4.44434 34.03 10.4143 40 17.7777 40C23.0832 40 26.7332 37.1133 28.7732 34.12C30.5032 31.5811 31.0054 28.9444 31.111 28.1478C31.111 28.1478 31.2477 26.5044 32.3954 24.9644C33.4909 23.4836 34.6494 22.0505 35.8677 20.6689C36.2199 20.2711 36.5621 18.7733 34.861 18.0211Z" fill="#FFDC5D"/>
<path id="Vector_3" d="M26.0435 23.8568C25.7135 23.5612 25.6302 23.2434 25.5802 22.959C23.478 23.2468 20.628 23.8357 18.4391 25.9757C15.5991 28.7523 15.1147 31.7534 15.138 33.7612C15.1569 35.3801 16.0402 36.1468 16.2991 33.7479C16.6235 30.7412 18.8035 24.789 26.0591 24.2145C26.0902 24.2123 26.4891 24.1879 26.7158 24.1757C26.7158 24.1757 26.3247 24.109 26.0435 23.8568Z" fill="#EF9645"/>
</g>
</svg>
