<svg width="24" height="24" viewBox="0 0 24 24" fill="none" xmlns="http://www.w3.org/2000/svg">
<g id="hugeicons:web-validation">
<g id="Group">
<path id="Vector" d="M21 10C20.99 6.415 20.886 4.528 19.609 3.318C18.217 2 15.979 2 11.5 2C7.022 2 4.782 2 3.391 3.318C2 4.636 2 6.758 2 11C2 15.242 2 17.364 3.391 18.682C4.618 19.844 6.503 19.982 10 19.998M15 17.5C15 17.5 15.5 17.5 16 18.5C16 18.5 17.588 16 19 15.5" stroke="white" stroke-width="1.5" stroke-linecap="round" stroke-linejoin="round"/>
<path id="Vector_2" d="M2 8.5H21M6.5 5.5H6.509M10.5 5.5H10.509M22 17C22 18.3261 21.4732 19.5979 20.5355 20.5355C19.5979 21.4732 18.3261 22 17 22C15.6739 22 14.4021 21.4732 13.4645 20.5355C12.5268 19.5979 12 18.3261 12 17C12 15.6739 12.5268 14.4021 13.4645 13.4645C14.4021 12.5268 15.6739 12 17 12C18.3261 12 19.5979 12.5268 20.5355 13.4645C21.4732 14.4021 22 15.6739 22 17Z" stroke="white" stroke-width="1.5" stroke-linecap="round" stroke-linejoin="round"/>
</g>
</g>
</svg>
