<svg width="24" height="24" viewBox="0 0 24 24" fill="none" xmlns="http://www.w3.org/2000/svg">
<g id="material-symbols:password-rounded">
<path id="Vector" d="M3 17.0004H21C21.2833 17.0004 21.521 17.0964 21.713 17.2884C21.905 17.4804 22.0007 17.7177 22 18.0004C21.9993 18.2831 21.9033 18.5207 21.712 18.7134C21.5207 18.9061 21.2833 19.0017 21 19.0004H3C2.71667 19.0004 2.47934 18.9044 2.288 18.7124C2.09667 18.5204 2.00067 18.2831 2 18.0004C1.99934 17.7177 2.09534 17.4804 2.288 17.2884C2.48067 17.0964 2.718 17.0004 3 17.0004ZM4 11.4504L3.525 12.3004C3.425 12.4837 3.275 12.6004 3.075 12.6504C2.875 12.7004 2.68334 12.6754 2.5 12.5754C2.31667 12.4754 2.2 12.3254 2.15 12.1254C2.1 11.9254 2.125 11.7337 2.225 11.5504L2.7 10.7004H1.75C1.53334 10.7004 1.35434 10.6297 1.213 10.4884C1.07167 10.3471 1.00067 10.1677 1 9.95039C0.999338 9.73306 1.07034 9.55406 1.213 9.41339C1.35567 9.27272 1.53467 9.20172 1.75 9.20039H2.7L2.225 8.40039C2.125 8.21706 2.1 8.02539 2.15 7.82539C2.2 7.62539 2.31667 7.47539 2.5 7.37539C2.68334 7.27539 2.875 7.25039 3.075 7.30039C3.275 7.35039 3.425 7.46706 3.525 7.65039L4 8.45039L4.475 7.65039C4.575 7.46706 4.725 7.35039 4.925 7.30039C5.125 7.25039 5.31667 7.27539 5.5 7.37539C5.68334 7.47539 5.8 7.62539 5.85 7.82539C5.9 8.02539 5.875 8.21706 5.775 8.40039L5.3 9.20039H6.25C6.46667 9.20039 6.646 9.27139 6.788 9.41339C6.93001 9.55539 7.00067 9.73439 7 9.95039C6.99934 10.1664 6.92834 10.3457 6.787 10.4884C6.64567 10.6311 6.46667 10.7017 6.25 10.7004H5.3L5.775 11.5504C5.875 11.7337 5.9 11.9254 5.85 12.1254C5.8 12.3254 5.68334 12.4754 5.5 12.5754C5.31667 12.6754 5.125 12.7004 4.925 12.6504C4.725 12.6004 4.575 12.4837 4.475 12.3004L4 11.4504ZM12 11.4504L11.525 12.3004C11.425 12.4837 11.275 12.6004 11.075 12.6504C10.875 12.7004 10.6833 12.6754 10.5 12.5754C10.3167 12.4754 10.2 12.3254 10.15 12.1254C10.1 11.9254 10.125 11.7337 10.225 11.5504L10.7 10.7004H9.75C9.53334 10.7004 9.35434 10.6297 9.21301 10.4884C9.07167 10.3471 9.00067 10.1677 9 9.95039C8.99934 9.73306 9.07034 9.55406 9.21301 9.41339C9.35567 9.27272 9.53467 9.20172 9.75 9.20039H10.7L10.225 8.40039C10.125 8.21706 10.1 8.02539 10.15 7.82539C10.2 7.62539 10.3167 7.47539 10.5 7.37539C10.6833 7.27539 10.875 7.25039 11.075 7.30039C11.275 7.35039 11.425 7.46706 11.525 7.65039L12 8.45039L12.475 7.65039C12.575 7.46706 12.725 7.35039 12.925 7.30039C13.125 7.25039 13.3167 7.27539 13.5 7.37539C13.6833 7.47539 13.8 7.62539 13.85 7.82539C13.9 8.02539 13.875 8.21706 13.775 8.40039L13.3 9.20039H14.25C14.4667 9.20039 14.6457 9.27139 14.787 9.41339C14.9283 9.55539 14.9993 9.73439 15 9.95039C15.0007 10.1664 14.9297 10.3457 14.787 10.4884C14.6443 10.6311 14.4653 10.7017 14.25 10.7004H13.3L13.775 11.5504C13.875 11.7337 13.9 11.9254 13.85 12.1254C13.8 12.3254 13.6833 12.4754 13.5 12.5754C13.3167 12.6754 13.125 12.7004 12.925 12.6504C12.725 12.6004 12.575 12.4837 12.475 12.3004L12 11.4504ZM20 11.4504L19.525 12.3004C19.425 12.4837 19.275 12.6004 19.075 12.6504C18.875 12.7004 18.6833 12.6754 18.5 12.5754C18.3167 12.4754 18.2 12.3254 18.15 12.1254C18.1 11.9254 18.125 11.7337 18.225 11.5504L18.7 10.7004H17.75C17.5333 10.7004 17.3543 10.6297 17.213 10.4884C17.0717 10.3471 17.0007 10.1677 17 9.95039C16.9993 9.73306 17.0703 9.55406 17.213 9.41339C17.3557 9.27272 17.5347 9.20172 17.75 9.20039H18.7L18.225 8.40039C18.125 8.21706 18.1 8.02539 18.15 7.82539C18.2 7.62539 18.3167 7.47539 18.5 7.37539C18.6833 7.27539 18.875 7.25039 19.075 7.30039C19.275 7.35039 19.425 7.46706 19.525 7.65039L20 8.45039L20.475 7.65039C20.575 7.46706 20.725 7.35039 20.925 7.30039C21.125 7.25039 21.3167 7.27539 21.5 7.37539C21.6833 7.47539 21.8 7.62539 21.85 7.82539C21.9 8.02539 21.875 8.21706 21.775 8.40039L21.3 9.20039H22.25C22.4667 9.20039 22.646 9.27139 22.788 9.41339C22.93 9.55539 23.0007 9.73439 23 9.95039C22.9993 10.1664 22.9283 10.3457 22.787 10.4884C22.6457 10.6311 22.4667 10.7017 22.25 10.7004H21.3L21.775 11.5504C21.875 11.7337 21.9 11.9254 21.85 12.1254C21.8 12.3254 21.6833 12.4754 21.5 12.5754C21.3167 12.6754 21.125 12.7004 20.925 12.6504C20.725 12.6004 20.575 12.4837 20.475 12.3004L20 11.4504Z" fill="#6D6D6D"/>
</g>
</svg>
