<svg width="12" height="12" viewBox="0 0 12 12" fill="none" xmlns="http://www.w3.org/2000/svg">
<g id="jam:stop-sign">
<path id="Vector" d="M3.547 9.16C4.31659 9.75826 5.27815 10.0549 6.25103 9.99423C7.22391 9.93354 8.14115 9.51969 8.83042 8.83042C9.51969 8.14115 9.93354 7.22391 9.99423 6.25103C10.0549 5.27815 9.75826 4.31659 9.16 3.547L3.547 9.16ZM2.84 8.453L8.453 2.84C7.68341 2.24173 6.72185 1.94508 5.74897 2.00577C4.77609 2.06646 3.85885 2.48031 3.16958 3.16958C2.48031 3.85885 2.06646 4.77609 2.00577 5.74897C1.94508 6.72185 2.24173 7.68341 2.84 8.453ZM6 11C3.2385 11 1 8.7615 1 6C1 3.2385 3.2385 1 6 1C8.7615 1 11 3.2385 11 6C11 8.7615 8.7615 11 6 11Z" fill="white"/>
</g>
</svg>
