<svg width="32" height="32" viewBox="0 0 32 32" fill="none" xmlns="http://www.w3.org/2000/svg">
<g id="mynaui:logout-solid">
<g id="Group">
<path id="Vector" d="M8.66667 4.99938C7.96533 4.99938 7 5.83938 7 7.42738V24.5727C7 26.162 7.96533 27.0007 8.66667 27.0007H17.9947C18.2599 27.0007 18.5142 27.1061 18.7018 27.2936C18.8893 27.4811 18.9947 27.7355 18.9947 28.0007C18.9947 28.2659 18.8893 28.5203 18.7018 28.7078C18.5142 28.8954 18.2599 29.0007 17.9947 29.0007H8.66667C6.42267 29.0007 5 26.77 5 24.5727V7.42605C5 5.22871 6.42267 2.99805 8.66667 2.99805H18C18.2652 2.99805 18.5196 3.1034 18.7071 3.29094C18.8946 3.47848 19 3.73283 19 3.99805C19 4.26326 18.8946 4.51762 18.7071 4.70515C18.5196 4.89269 18.2652 4.99805 18 4.99805L8.66667 4.99938Z" fill="#0066FF"/>
<path id="Vector_2" d="M22.04 10.6264C21.8525 10.4392 21.5984 10.334 21.3334 10.334C21.0684 10.334 20.8142 10.4392 20.6267 10.6264V14.9944H12.6667C12.4015 14.9944 12.1471 15.0998 11.9596 15.2873C11.772 15.4749 11.6667 15.7292 11.6667 15.9944C11.6667 16.2597 11.772 16.514 11.9596 16.7015C12.1471 16.8891 12.4015 16.9944 12.6667 16.9944H20.6267V21.3731C20.8142 21.5604 21.0684 21.6656 21.3334 21.6656C21.5984 21.6656 21.8525 21.5604 22.04 21.3731L26.7067 16.7064C26.7999 16.6134 26.8738 16.5028 26.9241 16.381C26.9745 16.2593 27.0003 16.1288 27 15.9971V15.9944C26.9999 15.8482 26.9678 15.7038 26.9058 15.5713C26.8438 15.4388 26.7536 15.3216 26.6414 15.2278L22.04 10.6264Z" fill="#0066FF"/>
</g>
</g>
</svg>
