<svg width="32" height="32" viewBox="0 0 32 32" fill="none" xmlns="http://www.w3.org/2000/svg">
<g id="trash">
<path id="Vector" d="M26.6666 11.5996H5.33331C5.0681 11.5996 4.81374 11.4943 4.62621 11.3067C4.43867 11.1192 4.33331 10.8648 4.33331 10.5996C4.33331 10.3344 4.43867 10.08 4.62621 9.8925C4.81374 9.70497 5.0681 9.59961 5.33331 9.59961H26.6666C26.9319 9.59961 27.1862 9.70497 27.3738 9.8925C27.5613 10.08 27.6666 10.3344 27.6666 10.5996C27.6666 10.8648 27.5613 11.1192 27.3738 11.3067C27.1862 11.4943 26.9319 11.5996 26.6666 11.5996Z" fill="#FF4E6B"/>
<path id="Vector_2" d="M21.92 27.6658H10.08C9.65748 27.6947 9.2334 27.6394 8.83238 27.5032C8.43135 27.3669 8.06136 27.1524 7.74386 26.8721C7.42635 26.5918 7.16764 26.2513 6.98274 25.8703C6.79783 25.4892 6.69041 25.0753 6.66669 24.6524V10.6658C6.66669 10.4005 6.77204 10.1462 6.95958 9.95864C7.14712 9.77111 7.40147 9.66575 7.66669 9.66575C7.9319 9.66575 8.18626 9.77111 8.37379 9.95864C8.56133 10.1462 8.66669 10.4005 8.66669 10.6658V24.6524C8.66669 25.1991 9.29335 25.6658 10 25.6658H21.84C22.5867 25.6658 23.1734 25.1991 23.1734 24.6524V10.6658C23.1734 10.3793 23.2871 10.1046 23.4897 9.90208C23.6922 9.69954 23.9669 9.58575 24.2534 9.58575C24.5398 9.58575 24.8145 9.69954 25.017 9.90208C25.2196 10.1046 25.3334 10.3793 25.3334 10.6658V24.6524C25.3096 25.0753 25.2022 25.4892 25.0173 25.8703C24.8324 26.2513 24.5737 26.5918 24.2562 26.8721C23.9387 27.1524 23.5687 27.3669 23.1677 27.5032C22.7666 27.6394 22.3426 27.6947 21.92 27.6658ZM22.08 10.3324C21.9482 10.3342 21.8174 10.3096 21.6952 10.26C21.5731 10.2103 21.4621 10.1367 21.3689 10.0435C21.2757 9.9503 21.2021 9.83935 21.1525 9.71721C21.1029 9.59508 21.0782 9.46424 21.08 9.33242V7.34575C21.08 6.79908 20.44 6.33242 19.7467 6.33242H12.2934C11.56 6.33242 10.96 6.79908 10.96 7.34575V9.33242C10.96 9.59763 10.8547 9.85199 10.6671 10.0395C10.4796 10.2271 10.2252 10.3324 9.96002 10.3324C9.6948 10.3324 9.44045 10.2271 9.25291 10.0395C9.06538 9.85199 8.96002 9.59763 8.96002 9.33242V7.34575C9.01165 6.5075 9.3894 5.72277 10.0124 5.15957C10.6354 4.59637 11.4542 4.29947 12.2934 4.33242H19.7067C20.5526 4.28867 21.3816 4.58071 22.0133 5.14502C22.6451 5.70933 23.0284 6.50026 23.08 7.34575V9.33242C23.0818 9.46486 23.0572 9.59633 23.0078 9.7192C22.9583 9.84207 22.8849 9.95388 22.7919 10.0482C22.6988 10.1424 22.588 10.2173 22.4658 10.2684C22.3436 10.3195 22.2125 10.3458 22.08 10.3458V10.3324Z" fill="#FF4E6B"/>
<path id="Vector_3" d="M13.6266 22.667C13.3625 22.6635 13.1102 22.557 12.9234 22.3702C12.7366 22.1834 12.6301 21.9311 12.6266 21.667V15.627C12.6266 15.3617 12.732 15.1074 12.9195 14.9198C13.1071 14.7323 13.3614 14.627 13.6266 14.627C13.8919 14.627 14.1462 14.7323 14.3338 14.9198C14.5213 15.1074 14.6266 15.3617 14.6266 15.627V21.6536C14.6284 21.7861 14.6039 21.9175 14.5544 22.0404C14.5049 22.1633 14.4315 22.2751 14.3385 22.3694C14.2455 22.4636 14.1346 22.5385 14.0124 22.5896C13.8902 22.6407 13.7591 22.667 13.6266 22.667ZM18.3733 22.667C18.1081 22.667 17.8537 22.5616 17.6662 22.3741C17.4787 22.1865 17.3733 21.9322 17.3733 21.667V15.627C17.3733 15.3617 17.4787 15.1074 17.6662 14.9198C17.8537 14.7323 18.1081 14.627 18.3733 14.627C18.6385 14.627 18.8929 14.7323 19.0804 14.9198C19.268 15.1074 19.3733 15.3617 19.3733 15.627V21.6536C19.3733 21.9201 19.2684 22.1758 19.0812 22.3655C18.8941 22.5551 18.6397 22.6634 18.3733 22.667Z" fill="#FF4E6B"/>
</g>
</svg>
