<svg width="16" height="16" viewBox="0 0 16 16" fill="none" xmlns="http://www.w3.org/2000/svg">
<g id="uiw:right">
<path id="Vector" fill-rule="evenodd" clip-rule="evenodd" d="M5.64243 1.72669L11.4368 7.53149C11.489 7.58133 11.5304 7.64133 11.5584 7.70779C11.5865 7.77425 11.6007 7.84575 11.6 7.91789C11.6003 7.99165 11.5861 8.06474 11.5581 8.13297C11.5301 8.2012 11.4889 8.26323 11.4368 8.31549C9.34083 10.3603 7.32083 12.3339 5.37683 14.2363C5.27683 14.3299 4.87683 14.5627 4.56803 14.2171C4.25923 13.8707 4.44643 13.5691 4.56803 13.4443L10.2224 7.91789L4.82483 2.51069C4.62803 2.23923 4.64403 1.98883 4.87283 1.75949C5.10216 1.53016 5.3587 1.51869 5.64243 1.72669Z" fill="#979797"/>
</g>
</svg>
