<svg width="20" height="20" viewBox="0 0 20 20" fill="none" xmlns="http://www.w3.org/2000/svg">
<g id="ci:bell">
<path id="Vector" d="M12.5 14.1667V15C12.5 15.663 12.2366 16.2989 11.7678 16.7678C11.2989 17.2366 10.6631 17.5 10 17.5C9.33697 17.5 8.70108 17.2366 8.23224 16.7678C7.7634 16.2989 7.50001 15.663 7.50001 15V14.1667M12.5 14.1667H7.50001M12.5 14.1667H15.4917C15.8108 14.1667 15.9708 14.1667 16.1 14.1233C16.2215 14.0822 16.3319 14.0136 16.4225 13.9228C16.5131 13.832 16.5816 13.7216 16.6225 13.6C16.6667 13.47 16.6667 13.31 16.6667 12.9883C16.6667 12.8475 16.6667 12.7775 16.655 12.71C16.6344 12.5838 16.5851 12.4641 16.5108 12.36C16.4708 12.3042 16.4208 12.2542 16.3217 12.155L15.9967 11.83C15.9448 11.7781 15.9037 11.7165 15.8757 11.6487C15.8477 11.581 15.8333 11.5083 15.8333 11.435V8.33333C15.8333 7.56729 15.6825 6.80875 15.3893 6.10101C15.0962 5.39328 14.6665 4.75022 14.1248 4.20854C13.5831 3.66687 12.9401 3.23719 12.2323 2.94404C11.5246 2.65088 10.7661 2.5 10 2.5C9.23397 2.5 8.47542 2.65088 7.76769 2.94404C7.05996 3.23719 6.4169 3.66687 5.87522 4.20854C5.33355 4.75022 4.90387 5.39328 4.61071 6.10101C4.31756 6.80875 4.16668 7.56729 4.16668 8.33333V11.435C4.16673 11.5083 4.15233 11.581 4.12431 11.6487C4.09628 11.7165 4.05518 11.7781 4.00334 11.83L3.67834 12.155C3.57834 12.255 3.52918 12.3042 3.49001 12.3592C3.41503 12.4633 3.36512 12.5834 3.34418 12.71C3.33334 12.7767 3.33334 12.8475 3.33334 12.9883C3.33334 13.31 3.33334 13.47 3.37668 13.6C3.41779 13.7217 3.48649 13.8323 3.57742 13.9231C3.66835 14.0139 3.77904 14.0824 3.90084 14.1233C4.03001 14.1667 4.18918 14.1667 4.50834 14.1667H7.50001" stroke="#0066FF" stroke-width="1.5" stroke-linecap="round" stroke-linejoin="round"/>
</g>
</svg>
