<svg width="57" height="60" viewBox="0 0 57 60" fill="none" xmlns="http://www.w3.org/2000/svg">
<g id="Group 1171274811">
<g id="Group 1171274805">
<path id="A" d="M18.9922 20.5815L29.6002 14.4426C30.7134 13.7878 31.6956 13.7059 32.5469 14.197C33.4309 14.6882 33.8729 15.5885 33.8729 16.8982V48.3292L29.6002 50.7848V40.9626L18.9922 47.1014V56.9236L14.7196 59.3792V27.9481C14.7196 27.0641 14.916 26.1474 15.3089 25.1979C15.7018 24.2157 16.2256 23.3153 16.8804 22.4968C17.5353 21.6456 18.2392 21.0071 18.9922 20.5815ZM29.6002 36.0515V19.3537L18.9922 25.4926V42.1903L29.6002 36.0515ZM29.6002 40.9626V50.7848L25.3275 48.3292V38.507L29.6002 40.9626ZM29.6002 19.3537V36.0515L25.3275 33.5959V16.8982L29.6002 19.3537ZM29.6002 36.0515L18.9922 42.1903L14.7196 39.7348L25.3275 33.5959L29.6002 36.0515ZM32.596 14.197C31.712 13.7059 30.7134 13.7878 29.6002 14.4426L18.9922 20.5815C18.2392 21.0071 17.5353 21.6456 16.8804 22.4968C16.2256 23.3153 15.7018 24.2157 15.3089 25.1979C14.916 26.1474 14.7196 27.0641 14.7196 27.9481V59.3792L10.4469 56.9236V25.4926C10.4469 24.6086 10.6433 23.6918 11.0362 22.7424C11.4291 21.7601 11.953 20.8598 12.6078 20.0413C13.2626 19.19 13.9665 18.5516 14.7196 18.1259L25.3275 11.9871C26.4735 11.3322 27.4721 11.2504 28.3233 11.7415L32.596 14.197Z" fill="#314352"/>
<path id="!" d="M56.4629 8.27332V30.3927L53.7454 31.9727V9.85327L56.4629 8.27332ZM55.1042 37.8185C54.5354 38.1345 54.0719 38.1871 53.7138 37.9765C53.3557 37.7658 53.1766 37.3445 53.1766 36.7125C53.1766 36.0805 53.3557 35.4486 53.7138 34.8166C54.0719 34.1846 54.5354 33.7106 55.1042 33.3946C55.6519 33.0786 56.1048 33.026 56.4629 33.2366C56.8211 33.4473 57.0001 33.8686 57.0001 34.5006C57.0001 35.1326 56.8211 35.7645 56.4629 36.3965C56.1048 37.0285 55.6519 37.5025 55.1042 37.8185ZM56.4629 8.27332L53.7454 9.85327L50.9963 8.27332L53.7454 6.69336L56.4629 8.27332ZM56.4629 33.2366C56.1048 33.026 55.6519 33.0786 55.1042 33.3946C54.5354 33.7106 54.0719 34.1846 53.7138 34.8166C53.3557 35.4486 53.1766 36.0805 53.1766 36.7125C53.1766 37.3445 53.3557 37.7658 53.7138 37.9765L50.9963 36.3965C50.6382 36.1859 50.4591 35.7645 50.4591 35.1326C50.4591 34.5006 50.6382 33.8686 50.9963 33.2366C51.3544 32.6046 51.8073 32.1306 52.3551 31.8147C52.9238 31.4987 53.3873 31.446 53.7454 31.6567L56.4629 33.2366ZM53.7454 9.85327V31.9727L50.9963 30.3927V8.27332L53.7454 9.85327Z" fill="#314352"/>
<path id="Vector" d="M38.4421 9.58562L40.9018 8.06445L43.3615 9.58562V42.747L40.9018 44.5724L38.4421 42.747V9.58562ZM42.2076 22.2269L48.7668 18.8411V23.5327L42.2076 26.9186V22.2269Z" fill="#314352"/>
</g>
<g id="Group 1171274806">
<path id="Vector 10" d="M1.34687 14.7656C2.44895 15.0693 6.29887 16.637 8.31198 17.6987" stroke="#314352" stroke-width="2" stroke-linecap="round"/>
<path id="Vector 11" d="M11.6357 14.2203C11.0507 13.6107 8.49869 9.33884 7.29582 7.27911" stroke="#314352" stroke-width="2" stroke-linecap="round"/>
<path id="Vector 12" d="M15.675 10.6071L15.1367 3.36149" stroke="#314352" stroke-width="2" stroke-linecap="round"/>
</g>
</g>
</svg>
