<svg width="16" height="16" viewBox="0 0 16 16" fill="none" xmlns="http://www.w3.org/2000/svg">
<g id="Group">
<path id="Vector" d="M10.1406 7.35248L7.65403 5.69426C7.53678 5.61604 7.40049 5.57114 7.25971 5.56437C7.11892 5.55761 6.97895 5.58922 6.85474 5.65584C6.73054 5.72245 6.62677 5.82157 6.55452 5.94259C6.48228 6.06361 6.44428 6.20198 6.44458 6.34293V9.65859C6.44456 9.79941 6.48277 9.93758 6.55512 10.0584C6.62748 10.1792 6.73127 10.2781 6.85543 10.3445C6.97959 10.4109 7.11945 10.4424 7.26009 10.4356C7.40074 10.4287 7.53689 10.3839 7.65403 10.3057L10.1406 8.64748C10.2471 8.57645 10.3344 8.48023 10.3949 8.36734C10.4553 8.25446 10.4869 8.1284 10.4869 8.00037C10.4869 7.87234 10.4553 7.74629 10.3949 7.6334C10.3344 7.52052 10.2471 7.42351 10.1406 7.35248Z" fill="#1E1E1E"/>
<path id="Vector_2" d="M15 8C15 8.91925 14.8189 9.82951 14.4672 10.6788C14.1154 11.5281 13.5998 12.2997 12.9497 12.9497C12.2997 13.5998 11.5281 14.1154 10.6788 14.4672C9.82951 14.8189 8.91925 15 8 15C7.08075 15 6.1705 14.8189 5.32122 14.4672C4.47194 14.1154 3.70026 13.5998 3.05025 12.9497C2.40024 12.2997 1.88463 11.5281 1.53284 10.6788C1.18106 9.82951 1 8.91925 1 8C1 6.14348 1.7375 4.36301 3.05025 3.05025C4.36301 1.7375 6.14348 1 8 1C9.85652 1 11.637 1.7375 12.9497 3.05025C14.2625 4.36301 15 6.14348 15 8Z" stroke="#1E1E1E" stroke-width="1.5" stroke-linecap="round" stroke-linejoin="round"/>
</g>
</svg>
