<svg width="16" height="16" viewBox="0 0 16 16" fill="none" xmlns="http://www.w3.org/2000/svg">
<g id="fluent:video-clip-20-regular">
<path id="Vector" d="M7.065 5.5764L7.06498 5.57639C6.98929 5.52909 6.90232 5.5029 6.8131 5.50056C6.72388 5.49822 6.63565 5.5198 6.55759 5.56307C6.47953 5.60634 6.41447 5.66971 6.36917 5.74661C6.32387 5.82351 6.29998 5.91114 6.29998 6.00039V10.1204C6.29998 10.1204 6.29998 10.1204 6.29998 10.1204C6.29996 10.2108 6.32444 10.2994 6.37081 10.377C6.41717 10.4546 6.4837 10.5181 6.5633 10.5609C6.6429 10.6037 6.73261 10.6241 6.82288 10.6199C6.91316 10.6158 7.00062 10.5873 7.07598 10.5374L7.07599 10.5374L10.276 8.41817L10.276 8.41815C10.3457 8.37199 10.4026 8.30911 10.4417 8.23527C10.4808 8.16143 10.5008 8.07897 10.4998 7.99542C10.4988 7.91188 10.4768 7.82992 10.436 7.75702C10.3952 7.68413 10.3367 7.62263 10.266 7.57815L10.2658 7.578L7.065 5.5764ZM3.59998 2.30039C3.04302 2.30039 2.50888 2.52164 2.11505 2.91547C1.72122 3.30929 1.49998 3.84344 1.49998 4.40039V11.6004C1.49998 12.1573 1.72122 12.6915 2.11505 13.0853C2.50888 13.4791 3.04302 13.7004 3.59998 13.7004H12.4C12.9569 13.7004 13.4911 13.4791 13.8849 13.0853C14.2787 12.6915 14.5 12.1573 14.5 11.6004V4.40039C14.5 3.84344 14.2787 3.30929 13.8849 2.91547C13.4911 2.52164 12.9569 2.30039 12.4 2.30039H3.59998ZM2.49998 4.40039C2.49998 4.10865 2.61587 3.82886 2.82216 3.62257C3.02845 3.41628 3.30824 3.30039 3.59998 3.30039H12.4C12.6917 3.30039 12.9715 3.41628 13.1778 3.62257C13.3841 3.82886 13.5 4.10865 13.5 4.40039V11.6004C13.5 11.8921 13.3841 12.1719 13.1778 12.3782C12.9715 12.5845 12.6917 12.7004 12.4 12.7004H3.59998C3.30824 12.7004 3.02845 12.5845 2.82216 12.3782C2.61587 12.1719 2.49998 11.8921 2.49998 11.6004V4.40039Z" fill="#1E1E1E" stroke="#1E1E1E" stroke-width="0.2"/>
</g>
</svg>
