<svg width="20" height="20" viewBox="0 0 20 20" fill="none" xmlns="http://www.w3.org/2000/svg">
<g id="octicon:person-16">
<path id="Vector" d="M13.2012 10.0913C14.4323 10.6725 15.482 11.5777 16.2378 12.71C16.9935 13.8424 17.4268 15.159 17.4912 16.5188C17.4998 16.6434 17.4834 16.7684 17.443 16.8866C17.4026 17.0047 17.3391 17.1136 17.256 17.2068C17.173 17.3001 17.0721 17.3758 16.9594 17.4295C16.8467 17.4832 16.7244 17.5139 16.5997 17.5197C16.475 17.5256 16.3504 17.5064 16.2331 17.4634C16.1159 17.4204 16.0085 17.3545 15.9171 17.2694C15.8257 17.1843 15.7523 17.0818 15.701 16.968C15.6498 16.8541 15.6218 16.7312 15.6187 16.6063C15.5506 15.162 14.9289 13.7994 13.8826 12.8013C12.8364 11.8033 11.4459 11.2464 9.99999 11.2464C8.55404 11.2464 7.16362 11.8033 6.11737 12.8013C5.07111 13.7994 4.44938 15.162 4.38124 16.6063C4.3644 16.8508 4.2525 17.079 4.06951 17.242C3.88652 17.405 3.64698 17.4898 3.40219 17.4784C3.1574 17.467 2.92682 17.3601 2.75983 17.1808C2.59284 17.0014 2.5027 16.7638 2.50874 16.5188C2.57302 15.1591 3.00615 13.8426 3.76167 12.7103C4.5172 11.578 5.56664 10.6726 6.79749 10.0913C6.00875 9.43345 5.44182 8.54857 5.1738 7.55706C4.90579 6.56555 4.9497 5.51555 5.29957 4.54988C5.64944 3.58421 6.28828 2.74976 7.12919 2.16003C7.97011 1.57029 8.97227 1.25391 9.99936 1.25391C11.0265 1.25391 12.0286 1.57029 12.8695 2.16003C13.7104 2.74976 14.3493 3.58421 14.6992 4.54988C15.049 5.51555 15.0929 6.56555 14.8249 7.55706C14.5569 8.54857 13.99 9.43345 13.2012 10.0913ZM13.125 6.25009C13.125 5.42129 12.7957 4.62643 12.2097 4.04038C11.6236 3.45433 10.8288 3.12509 9.99999 3.12509C9.17119 3.12509 8.37633 3.45433 7.79028 4.04038C7.20423 4.62643 6.87499 5.42129 6.87499 6.25009C6.87499 7.07889 7.20423 7.87375 7.79028 8.4598C8.37633 9.04585 9.17119 9.37509 9.99999 9.37509C10.8288 9.37509 11.6236 9.04585 12.2097 8.4598C12.7957 7.87375 13.125 7.07889 13.125 6.25009Z" fill="#83A6DD"/>
</g>
</svg>
