<svg width="24" height="24" viewBox="0 0 24 24" fill="none" xmlns="http://www.w3.org/2000/svg">
<g id="warning">
<path id="Vector" d="M12 4C16.411 4 20 7.589 20 12C20 16.411 16.411 20 12 20C7.589 20 4 16.411 4 12C4 7.589 7.589 4 12 4ZM12 2C6.477 2 2 6.477 2 12C2 17.523 6.477 22 12 22C17.523 22 22 17.523 22 12C22 6.477 17.523 2 12 2Z" fill="#FF4E6B"/>
<circle id="Ellipse 12" cx="12" cy="16.5" r="1" fill="#FF4E6B"/>
<rect id="Rectangle 39916" x="11" y="6" width="2" height="8" fill="#FF4E6B"/>
</g>
</svg>
