<svg width="18" height="15" viewBox="0 0 18 15" fill="none" xmlns="http://www.w3.org/2000/svg">
<path id="&#226;&#128;&#156;" d="M13.4404 -0.000312805C16.0004 -0.000312805 17.3604 1.95969 17.3604 5.43969C17.3604 9.51969 15.3604 12.5997 11.3204 14.6797L9.96035 12.0397C12.6004 10.6797 13.8804 8.95969 13.8804 6.27969L13.6004 2.59969L15.7604 5.47969C15.0804 5.99969 14.3204 6.39969 13.4404 6.39969C11.7204 6.39969 10.2804 5.23969 10.2804 3.35969C10.2804 1.27969 11.6004 -0.000312805 13.4404 -0.000312805ZM3.48035 -0.000312805C6.00035 -0.000312805 7.36035 1.95969 7.36035 5.43969C7.36035 9.51969 5.36035 12.5997 1.32035 14.6797L0.000350952 12.0397C2.60035 10.6797 3.88035 8.95969 3.88035 6.27969L3.64035 2.59969L5.76035 5.47969C5.08035 5.99969 4.32035 6.39969 3.48035 6.39969C1.76035 6.39969 0.280352 5.23969 0.280352 3.35969C0.280352 1.27969 1.60035 -0.000312805 3.48035 -0.000312805Z" fill="#0066FF"/>
</svg>
