<svg width="12" height="12" viewBox="0 0 12 12" fill="none" xmlns="http://www.w3.org/2000/svg">
<g id="ph:check">
<path id="Vector" d="M10.1288 3.00383L4.50021 8.63291L4.2349 9.64052C4.26972 9.67539 4.31108 9.70305 4.35661 9.72192C4.40213 9.74079 4.45093 9.7505 4.50021 9.7505C4.54949 9.7505 4.59829 9.74079 4.64381 9.72192C4.68934 9.70305 4.73069 9.67539 4.76552 9.64052L4.87159 9.74659L4.87165 9.74653L10.8716 3.74659L10.7655 3.64052L10.8716 3.74659C10.9701 3.64809 11.0254 3.5145 11.0254 3.37521C11.0254 3.23591 10.9701 3.10233 10.8716 3.00383L10.8716 3.00383C10.7731 2.90533 10.6395 2.85 10.5002 2.85C10.3609 2.85 10.2273 2.90533 10.1288 3.00383L10.1288 3.00383Z" fill="white" stroke="white" stroke-width="0.3"/>
</g>
</svg>
