<svg width="25" height="24" viewBox="0 0 25 24" fill="none" xmlns="http://www.w3.org/2000/svg">
<g id="proicons:note">
<g id="Group">
<path id="Vector" d="M17 4H8.5C7.43913 4 6.42172 4.42143 5.67157 5.17157C4.92143 5.92172 4.5 6.93913 4.5 8V16.5C4.5 17.5609 4.92143 18.5783 5.67157 19.3284C6.42172 20.0786 7.43913 20.5 8.5 20.5H15.343C15.8684 20.5 16.3887 20.3965 16.8741 20.1954C17.3595 19.9943 17.8005 19.6996 18.172 19.328L19.828 17.672C20.1996 17.3005 20.4943 16.8595 20.6954 16.3741C20.8965 15.8887 21 15.3684 21 14.843V8C21 6.93913 20.5786 5.92172 19.8284 5.17157C19.0783 4.42143 18.0609 4 17 4Z" stroke="#979797" stroke-width="1.5" stroke-linecap="round" stroke-linejoin="round"/>
<path id="Vector_2" d="M21 14H17.5C16.7044 14 15.9413 14.3161 15.3787 14.8787C14.8161 15.4413 14.5 16.2044 14.5 17V20.5M8.5 8H16M8.5 12H13.5" stroke="#979797" stroke-width="1.5" stroke-linecap="round" stroke-linejoin="round"/>
</g>
</g>
</svg>
